<svg version="1.2" xmlns="http://www.w3.org/2000/svg" viewBox="0 0 1000 1000" width="1000" height="1000"><style>.a{fill:#f59e0b}.b{fill:#fff}</style><path fill-rule="evenodd" class="a" d="m500 983.7c-276.5 0-500-216-500-483.3 0-267.3 223.5-483.4 500-483.4 276.5 0 500 216.1 500 483.4 0 267.3-223.5 483.3-500 483.3z"/><path fill-rule="evenodd" class="b" d="m734.3 343.2c4.2 19.4-8.1 38.6-27.5 42.8l-111.8 24.2c-19 4-32.5 20.8-32.5 40.2v36.1c0 39.4 7.1 78.4 20.8 115.2l66.8 178.9c7 18.6-2.4 39.3-21.1 46.3-18.6 6.9-39.3-2.5-46.2-21.1l-64-171.2c-6.6-17.8-31.8-17.8-38.5 0l-63.9 171.2c-7 18.6-27.7 28-46.3 21.1-18.6-7-28.1-27.7-21.1-46.3l66.8-178.9c13.8-36.8 20.8-75.8 20.8-115.2v-36.1c0-19.4-13.5-36.2-32.4-40.2l-111.8-24.2c-19.4-4.2-31.8-23.4-27.6-42.8 4.2-19.4 23.4-31.7 42.8-27.5l157.2 34c22.9 4.9 46.6 4.9 69.5 0l157.3-34c19.4-4.2 38.5 8.1 42.7 27.5zm-236.5-28.3c-39.8 0-71.9-32.2-71.9-72 0-39.7 32.1-71.9 71.9-71.9 39.8 0 71.9 32.2 71.9 71.9 0 39.8-32.1 72-71.9 72z"/></svg>