<svg version="1.2" xmlns="http://www.w3.org/2000/svg" viewBox="0 0 1000 1000" width="1000" height="1000"><style>.a{fill:#f59e0b}.b{fill:#fff}</style><path fill-rule="evenodd" class="a" d="m500 983.7c-276.5 0-500-216-500-483.3 0-267.3 223.5-483.4 500-483.4 276.5 0 500 216.1 500 483.4 0 267.3-223.5 483.3-500 483.3z"/><path fill-rule="evenodd" class="b" d="m785.7 309.3c5.1 23.6-9.9 46.9-33.5 52l-135.9 29.4c-23 5-39.5 25.3-39.5 48.9v43.9c0 47.8 8.6 95.3 25.3 140l81.3 217.5c8.4 22.6-3.1 47.8-25.7 56.2-22.6 8.5-47.8-3-56.2-25.6l-77.7-208c-8.1-21.7-38.8-21.7-46.9 0l-77.7 208c-8.4 22.6-33.6 34.1-56.2 25.6-22.6-8.4-34.1-33.6-25.7-56.2l81.2-217.5c16.8-44.8 25.3-92.2 25.3-140v-43.9c0-23.6-16.4-43.9-39.4-48.9l-135.9-29.4c-23.6-5.1-38.6-28.4-33.5-52 5.1-23.6 28.4-38.6 52-33.4l191.1 41.3c27.8 6 56.7 6 84.5 0l191.1-41.3c23.6-5.2 46.9 9.8 52 33.4zm-287.5-209.3c48.3 0 87.4 39.1 87.4 87.4 0 48.3-39.1 87.5-87.4 87.5-48.3 0-87.5-39.2-87.5-87.5 0-48.3 39.2-87.4 87.5-87.4z"/></svg>