<svg xmlns="http://www.w3.org/2000/svg" viewBox="0 0 48 48" fill="none">
  <rect width="48" height="48" rx="10" fill="#010101"/>
  <path d="M34.1 11.9A8.5 8.5 0 0 1 26.5 4h-5.8v27.2a4.7 4.7 0 0 1-4.7 4.4 4.7 4.7 0 0 1-4.7-4.7 4.7 4.7 0 0 1 4.7-4.7c.45 0 .88.07 1.3.18V20.5a10.5 10.5 0 0 0-1.3-.08 10.5 10.5 0 0 0-10.5 10.5A10.5 10.5 0 0 0 16 41.4a10.5 10.5 0 0 0 10.5-10.5V18.4a14.2 14.2 0 0 0 8.3 2.66v-5.8a8.54 8.54 0 0 1-0.7-3.36Z" fill="white"/>
  <path d="M34.1 11.9A8.5 8.5 0 0 1 26.5 4h-5.8v27.2a4.7 4.7 0 0 1-4.7 4.4 4.7 4.7 0 0 1-4.7-4.7 4.7 4.7 0 0 1 4.7-4.7c.45 0 .88.07 1.3.18V20.5a10.5 10.5 0 0 0-1.3-.08 10.5 10.5 0 0 0-10.5 10.5A10.5 10.5 0 0 0 16 41.4a10.5 10.5 0 0 0 10.5-10.5V18.4a14.2 14.2 0 0 0 8.3 2.66v-5.8a8.54 8.54 0 0 1-.7-3.36Z" fill="#69C9D0" fill-opacity="0.5"/>
</svg>
